<?xml version="1.0" encoding="iso-8859-1"?>
<!-- Generator: Adobe Illustrator 16.0.0, SVG Export Plug-In . SVG Version: 6.00 Build 0)  -->
<!DOCTYPE svg PUBLIC "-//W3C//DTD SVG 1.1//EN" "http://www.w3.org/Graphics/SVG/1.1/DTD/svg11.dtd">
<svg version="1.1" id="Capa_1" xmlns="http://www.w3.org/2000/svg" xmlns:xlink="http://www.w3.org/1999/xlink" x="0px" y="0px"
	 width="403.572px" height="403.572px" viewBox="0 0 403.572 403.572" style="enable-background:new 0 0 403.572 403.572;"
	 xml:space="preserve">
<g>
	<g>
		<path d="M392.296,191.823c-1.243,0-2.546-0.154-3.885-0.467l-147.284-34.412c-8.757-2.046-17.66-10.387-20.272-18.99
			l-13.062-43.013c-0.699-2.31,0.604-4.751,2.913-5.454c2.315-0.701,4.753,0.604,5.454,2.912l13.062,43.013
			c1.7,5.602,8.192,11.684,13.893,13.016l147.282,34.412c2.188,0.51,3.479,0.15,3.955-0.359c0.478-0.509,0.754-1.818,0.102-3.969
			l-19.188-63.195c-1.742-5.735-8.259-12.433-13.945-14.332L213.076,51.488c-6.195-2.068-16.664-2.066-22.859,0.005L42.248,100.979
			c-5.685,1.901-12.202,8.601-13.945,14.338L9.118,178.511c-0.654,2.151-0.377,3.46,0.1,3.969c0.474,0.511,1.766,0.871,3.956,0.358
			l147.282-34.412c5.702-1.333,12.194-7.414,13.892-13.015l13.062-43.015c0.701-2.308,3.141-3.614,5.454-2.911
			c2.31,0.701,3.613,3.142,2.913,5.454l-13.062,43.013c-2.612,8.601-11.516,16.944-20.273,18.989L15.159,191.354
			c-5.008,1.171-9.505,0.115-12.324-2.896c-2.821-3.011-3.581-7.562-2.083-12.487l19.185-63.193
			c2.572-8.463,11.152-17.286,19.537-20.091l147.97-49.486c7.964-2.66,20.438-2.665,28.401-0.005l148.246,49.499
			c8.388,2.801,16.97,11.623,19.54,20.084l19.189,63.195c1.495,4.924,0.735,9.476-2.085,12.486
			C398.67,190.666,395.706,191.821,392.296,191.823z"/>
	</g>
	<path d="M375.525,207.02c-2.414,0-4.371,1.957-4.371,4.371v81.372c0,5.477-4.594,11.688-9.829,13.292l-56.616,17.354v-54.932
		h12.438c4.024,0,7.132-1.632,8.527-4.479c1.394-2.847,0.78-6.302-1.686-9.482l-27.009-34.851c-2.246-2.899-5.444-4.495-8.812-4.52
		c-3.354,0.026-6.54,1.724-8.741,4.657l-26.014,34.684c-2.405,3.207-2.971,6.676-1.551,9.518c1.42,2.841,4.536,4.471,8.546,4.471
		h11.224v65.585l-58.102,18.102c-6.292,1.959-16.912,1.959-23.204,0L42.531,306.118c-5.235-1.632-9.829-7.874-9.829-13.357v-81.437
		c0-2.414-1.957-4.371-4.372-4.371c-2.415,0-4.372,1.957-4.372,4.371v81.437c0,9.381,7.017,18.914,15.974,21.705l147.794,46.041
		c3.979,1.242,9.091,1.861,14.2,1.861s10.22-0.621,14.2-1.861l60.174-18.746c0.39-0.121,0.735-0.306,1.062-0.518
		c1.742-0.575,3.008-2.196,3.008-4.132v-73.008c0-2.415-1.957-4.372-4.371-4.372h-15.596l26.014-34.683
		c0.558-0.745,1.202-1.157,1.814-1.161c0.681-0.016,1.265,0.397,1.834,1.132l26.904,34.712h-16.637
		c-2.414,0-4.371,1.957-4.371,4.372v65.022c0,2.414,1.933,4.351,4.371,4.371c0.391,0.004,1.296-0.073,1.91-0.192l61.641-18.894
		c8.979-2.75,16.01-12.261,16.01-21.65V211.39C379.897,208.977,377.94,207.02,375.525,207.02z"/>
</g>
<g>
</g>
<g>
</g>
<g>
</g>
<g>
</g>
<g>
</g>
<g>
</g>
<g>
</g>
<g>
</g>
<g>
</g>
<g>
</g>
<g>
</g>
<g>
</g>
<g>
</g>
<g>
</g>
<g>
</g>
</svg>
